<svg width="180" height="180" viewBox="0 0 180 180" fill="none" xmlns="http://www.w3.org/2000/svg">
  <rect width="180" height="180" rx="40" fill="#029338"/>
  <path d="M55 140C70 140 85 133 85 110C85 93.5 77 86 68 82L47 75.5C42 74 40 72.5 40 68C40 62 44 60 51 60C56 60 67 60.5 73 61.5L74.5 53C67 51.5 57 50 51 50C40 50 29 53 29 68.5C29 79 34 83 42 85.5L64 92C69 93.5 71.5 96 71.5 110C71.5 118 67 120 60 120C54 120 44 119 29 117L27.5 126C37 128.5 49 140 55 140Z" fill="white"/>
  <path d="M95 100H115V110H125V100H135V85H125V65H115V85H95V100Z" fill="white"/>
  <path d="M120 135H130V115H145V105H130V100H155V85H120V135Z" fill="white"/>
  <path d="M95 135H105V120H118V108H105V103H125V88H95V135Z" fill="white"/>
</svg>
