<svg width="32" height="32" viewBox="0 0 32 32" fill="none" xmlns="http://www.w3.org/2000/svg">
  <rect width="32" height="32" rx="6" fill="#029338"/>
  <path d="M10.5 24C13.4 24 16.3 22.8 16.3 18.8C16.3 15.6 14.7 14.2 12.5 13.5L8.5 12.3C7.4 11.95 6.95 11.6 6.95 10.5C6.95 8.9 8.1 8.5 9.9 8.5C11 8.5 13.4 8.6 14.8 8.8L15.1 6C13.4 5.65 11.4 5.4 9.8 5.4C7 5.4 4.4 6.3 4.4 10.7C4.4 13.2 5.4 14.3 7.3 14.9L11.5 16.2C12.7 16.55 13.2 17.1 13.2 18.8C13.2 20.3 12.1 20.7 10.6 20.7C9.4 20.7 7.2 20.5 4.4 20.1L4.1 23C6.2 23.4 8.7 24 10.5 24Z" fill="white"/>
  <path d="M17.5 17.5H21.5V19H22.8V17.5H24V15.8H22.8V12.5H21.5V15.8H17.5V17.5Z" fill="white"/>
  <path d="M22 23.5H23.5V20H25.8V18.5H23.5V17H27V15.3H22V23.5Z" fill="white"/>
</svg>
